<svg width="170" height="92" fill="none" xmlns="http://www.w3.org/2000/svg"><symbol id="client1"><rect x=".5" y=".5" width="169" height="91" rx="3.5" stroke="#AFB1B8"/><path fill-rule="evenodd" clip-rule="evenodd" d="m70 24.713 7.008 6.634L64 31.34v32.187h34V51.22l7 6.627V24.713H70Zm27.692 25.728-19.87-18.81h19.87v18.81Zm-6.169 8.378H69.38V37.17h1.565v20.182h20.578v1.466ZM74.61 67.812l-.818 1.685-.818-1.685h-.686l1.194 2.246v1.309h.62v-1.309l1.192-2.246h-.684Zm1.028 3.555.288-.828h1.377l.29.828h.645l-1.345-3.555h-.555l-1.342 3.555h.642Zm.976-2.8.515 1.474h-1.03l.515-1.474Zm3.257 1.389a.808.808 0 0 0-.134.451c0 .3.105.543.315.73.211.186.493.279.844.279.352 0 .655-.095.909-.286l.2.237h.688l-.522-.618c.205-.28.308-.639.308-1.076h-.516c0 .239-.05.456-.148.651l-.687-.81.242-.176a1.34 1.34 0 0 0 .369-.371.785.785 0 0 0 .112-.41.732.732 0 0 0-.249-.564.895.895 0 0 0-.635-.23c-.286 0-.514.082-.683.245-.17.16-.254.38-.254.659 0 .114.027.232.08.354.056.122.153.27.29.444-.263.189-.44.352-.529.49Zm1.604.786a.905.905 0 0 1-.561.2.584.584 0 0 1-.425-.154.533.533 0 0 1-.159-.4c0-.19.098-.36.293-.508l.076-.054.776.916Zm-.637-1.575c-.168-.207-.252-.378-.252-.515 0-.119.035-.217.103-.295a.348.348 0 0 1 .276-.117.37.37 0 0 1 .266.1c.07.065.105.144.105.236a.44.44 0 0 1-.151.345l-.076.06-.271.186Zm5.786 1.931c.244-.213.384-.51.42-.888h-.615c-.033.254-.11.435-.232.544-.122.11-.305.164-.547.164-.265 0-.467-.101-.606-.303-.136-.202-.205-.495-.205-.879v-.315c.004-.38.077-.666.22-.862.145-.197.352-.295.62-.295.231 0 .406.057.525.17.12.113.195.297.225.553h.615c-.04-.39-.178-.69-.418-.904-.239-.213-.555-.32-.947-.32-.291 0-.548.07-.771.208a1.346 1.346 0 0 0-.51.59 2.08 2.08 0 0 0-.179.887v.332c.005.327.066.614.183.862.118.247.284.439.498.574.217.133.467.2.75.2.405 0 .73-.106.974-.318Zm3.63-.498c.12-.263.181-.57.181-.918v-.197a2.148 2.148 0 0 0-.185-.911 1.355 1.355 0 0 0-.52-.6c-.224-.14-.48-.21-.77-.21-.29 0-.546.07-.771.212-.223.14-.396.342-.52.608a2.174 2.174 0 0 0-.183.918v.2c.002.34.063.64.185.9.124.261.298.462.523.604.226.14.483.21.771.21.292 0 .549-.07.772-.21.224-.142.397-.344.517-.606Zm-.661-2.009c.15.21.224.512.224.906v.185c0 .4-.074.705-.222.913-.146.209-.356.313-.63.313a.738.738 0 0 1-.634-.32c-.152-.213-.227-.515-.227-.906v-.205c.003-.382.08-.678.229-.886a.73.73 0 0 1 .628-.315c.273 0 .484.105.632.315Z" fill="#AFB1B8"/></svg>
<svg width="170" height="92" fill="none" xmlns="http://www.w3.org/2000/svg"><symbol id="client2"><rect x=".5" y=".5" width="169" height="91" rx="3.5" stroke="#AFB1B8"/><path fill-rule="evenodd" clip-rule="evenodd" d="M82.114 23.648h-.137c-.21-.013-.42-.018-.63-.023h-.455c-.397 0-.802.01-1.204.03a.628.628 0 0 0-.091 0 28.274 28.274 0 0 0-10.516 2.683l-.433.209v22.14l1.012-.343c.888-.305 1.834-.58 2.813-.834a34.334 34.334 0 0 1 8.095-1.075v2.909a24.28 24.28 0 0 0-1.065.03h-.084a32.36 32.36 0 0 0-6.228.956 31.635 31.635 0 0 0-7.42 2.892V24.825a29.728 29.728 0 0 1 7.785-3.166 29.793 29.793 0 0 1 7.336-.946h.427c.511.013 1.01.036 1.478.071 1.233.087 2.456.282 3.655.583v2.863a22.614 22.614 0 0 0-3.541-.534l-.073-.006a8.725 8.725 0 0 0-.724-.042Zm5.039 2.927c.635.048 1.292.07 1.958.07a31.463 31.463 0 0 0 7.713-.988 31.767 31.767 0 0 0 7.417-2.894v27.89a29.809 29.809 0 0 1-7.786 3.166 29.943 29.943 0 0 1-7.337.944 22.405 22.405 0 0 1-5.565-.656V26.035c.43.1.873.191 1.323.267.739.125 1.518.217 2.277.273Zm14.194.216-1.012.34c-.93.313-1.87.593-2.813.842a34.263 34.263 0 0 1-8.406 1.078c-.66 0-1.267-.017-1.854-.056l-.807-.053V51.719l.693.06c.642.057 1.305.085 1.973.085a26.888 26.888 0 0 0 6.62-.857 27.746 27.746 0 0 0 5.173-1.86l.433-.208V26.791Z" fill="#AFB1B8"/><path d="M67.737 62.925a1.492 1.492 0 0 0-1.126-.455 1.676 1.676 0 0 0-.65.122 1.464 1.464 0 0 0-.832.842c-.08.2-.119.413-.116.628v3.794a1.79 1.79 0 0 0 .149.778c.09.195.219.368.38.509.151.128.329.22.52.27.185.051.376.078.567.078.211.002.42-.043.612-.132a1.601 1.601 0 0 0 .96-1.465v-.424h-.993v.338a.88.88 0 0 1-.058.338.607.607 0 0 1-.144.214.697.697 0 0 1-.415.145.504.504 0 0 1-.465-.204.898.898 0 0 1-.132-.508v-3.538c-.006-.196.036-.39.122-.567a.507.507 0 0 1 .485-.229.527.527 0 0 1 .443.214.806.806 0 0 1 .164.509v.328h.982v-.387a1.79 1.79 0 0 0-.121-.664 1.563 1.563 0 0 0-.332-.534ZM73.629 62.882a1.765 1.765 0 0 0-1.128-.417c-.202.001-.403.037-.592.107a1.56 1.56 0 0 0-.908.842c-.1.231-.15.482-.145.735v3.638c-.006.256.043.51.145.746.09.195.22.369.384.508.152.14.33.25.524.32a1.711 1.711 0 0 0 1.72-.32c.158-.142.285-.315.374-.508.102-.235.151-.49.144-.746V64.15a1.77 1.77 0 0 0-.144-.735 1.641 1.641 0 0 0-.374-.532Zm-.463 4.905a.656.656 0 0 1-.197.527.726.726 0 0 1-.934 0 .65.65 0 0 1-.197-.526v-3.64a.653.653 0 0 1 .197-.526.726.726 0 0 1 .934 0 .653.653 0 0 1 .197.527v3.638ZM81.367 69.412v-6.888h-.953L79.16 66.17h-.017l-1.263-3.646h-.943v6.888h.984v-4.19h.017l.964 2.962h.491l.971-2.962h.018v4.19h.984ZM86.958 63.007c-.151-.17-.343-.3-.556-.377a2.184 2.184 0 0 0-.714-.106h-1.462v6.888h.981v-2.69h.506c.307.014.611-.05.886-.188a1.43 1.43 0 0 0 .539-.527c.113-.183.19-.387.225-.6.038-.259.056-.52.053-.783.01-.33-.023-.661-.096-.984a1.467 1.467 0 0 0-.362-.633Zm-.506 2.1a.866.866 0 0 1-.091.359.553.553 0 0 1-.253.241 1.007 1.007 0 0 1-.463.087h-.448v-2.342h.506a.941.941 0 0 1 .443.086.555.555 0 0 1 .23.255c.054.12.083.251.086.384v.457c0 .16.01.326 0 .473h-.01ZM91.608 62.524h-.805l-1.518 6.888h.982l.288-1.48h1.338l.289 1.48h.981l-1.555-6.888Zm-.906 4.47.483-2.497h.018l.48 2.497h-.981ZM97.95 66.674h-.018l-1.482-4.15h-.944v6.888h.981V65.27h.02l1.5 4.142h.924v-6.888h-.981v4.15ZM103.948 62.524l-.79 2.739h-.02l-.789-2.74h-1.04l1.348 3.978v2.911h.982v-2.911l1.348-3.977h-1.039ZM65 71.358h.473v1.327h.321v-1.327h.47v-.272H65v.272ZM68.977 71.086l-.62 1.6h.341l.132-.365h.638l.136.364h.35l-.636-1.6h-.341Zm-.05.966.217-.593.217.593h-.435ZM72.908 72.095h.37v.206a.612.612 0 0 1-.38.135.402.402 0 0 1-.34-.153.669.669 0 0 1-.118-.417c0-.356.154-.534.46-.534a.338.338 0 0 1 .362.255l.316-.061c-.068-.313-.293-.47-.678-.47a.804.804 0 0 0-.559.205.78.78 0 0 0-.23.616.872.872 0 0 0 .205.6.776.776 0 0 0 .607.234.961.961 0 0 0 .678-.255v-.63h-.693v.27ZM76.923 71.086h-.324v1.6h1.12v-.273h-.796v-1.327ZM80.317 71.086h-.323v1.6h.323v-1.6ZM83.636 72.154l-.655-1.068h-.313v1.6h.3V71.64l.643 1.045h.322v-1.6h-.297v1.069ZM86.637 71.98h.797v-.271h-.797v-.351h.857v-.272h-1.181v1.6h1.214v-.273h-.89v-.432ZM93.912 71.716h-.63v-.63h-.32v1.6h.32v-.7h.63v.7h.322v-1.6h-.322v.63ZM96.93 71.98h.8v-.271h-.8v-.351h.86v-.272H96.61v1.6h1.212v-.273h-.89v-.432ZM101.023 71.98c.279-.043.42-.19.42-.444a.38.38 0 0 0-.157-.356.904.904 0 0 0-.468-.094h-.678v1.6h.322v-.67h.063a.433.433 0 0 1 .2.036c.047.029.086.07.114.117l.349.508h.384l-.195-.312a1.11 1.11 0 0 0-.354-.384Zm-.324-.22h-.237v-.402h.253a.838.838 0 0 1 .326.038.21.21 0 0 1 .046.256.213.213 0 0 1-.061.07.915.915 0 0 1-.327.038ZM104.11 71.98h.796v-.271h-.796v-.351h.86v-.272h-1.184v1.6H105v-.273h-.89v-.432Z" fill="#AFB1B8"/></svg>
<svg width="170" height="92" fill="none" xmlns="http://www.w3.org/2000/svg"><symbol id="client3"><rect x=".5" y=".5" width="169" height="91" rx="3.5" stroke="#AFB1B8"/><path d="M68.406 65.101c.016 0 .032.004.046.01a.122.122 0 0 1 .039.024l.218.208c-.17.169-.379.304-.614.396a2.39 2.39 0 0 1-.87.142c-.28.005-.558-.04-.817-.133a1.794 1.794 0 0 1-.616-.374 1.674 1.674 0 0 1-.398-.578 1.926 1.926 0 0 1-.14-.742 1.725 1.725 0 0 1 .573-1.322c.186-.163.409-.291.654-.377.269-.09.555-.135.843-.132a2.27 2.27 0 0 1 .782.12c.216.082.415.195.587.335l-.183.222a.177.177 0 0 1-.047.04.125.125 0 0 1-.073.017.177.177 0 0 1-.08-.023l-.097-.06-.137-.076a1.555 1.555 0 0 0-.43-.132 1.892 1.892 0 0 0-.325-.024 1.759 1.759 0 0 0-.605.1c-.18.063-.341.158-.474.28-.136.128-.241.28-.309.445a1.497 1.497 0 0 0-.111.587c-.004.203.034.406.111.597a1.3 1.3 0 0 0 .303.443c.125.12.28.215.453.275.178.064.369.097.561.095.112.001.223-.005.333-.019a1.316 1.316 0 0 0 .72-.306.171.171 0 0 1 .103-.038ZM74.704 64.054c.004.251-.046.5-.147.737a1.594 1.594 0 0 1-.41.572 1.888 1.888 0 0 1-.645.375 2.655 2.655 0 0 1-1.658 0 1.913 1.913 0 0 1-.64-.376 1.679 1.679 0 0 1-.415-.578 1.922 1.922 0 0 1 0-1.476c.093-.216.234-.413.415-.58.182-.159.4-.282.64-.363a2.61 2.61 0 0 1 1.658 0c.242.085.461.213.644.376.179.165.319.36.411.571.101.238.151.489.147.742Zm-.572 0a1.564 1.564 0 0 0-.104-.593 1.22 1.22 0 0 0-.752-.722 1.918 1.918 0 0 0-1.205 0 1.295 1.295 0 0 0-.461.28 1.191 1.191 0 0 0-.295.443 1.738 1.738 0 0 0 0 1.184 1.21 1.21 0 0 0 .756.72c.388.127.816.127 1.205 0 .175-.061.333-.156.46-.277.131-.129.23-.28.292-.443.073-.19.108-.391.104-.592ZM79.001 64.675l.058.132c.021-.047.04-.09.062-.132.021-.045.045-.088.071-.13l1.393-2.201c.028-.038.052-.062.08-.069a.373.373 0 0 1 .114-.012h.412v3.58h-.488V63.1a.974.974 0 0 1 0-.124L79.3 65.208a.203.203 0 0 1-.082.081.246.246 0 0 1-.12.03h-.079a.243.243 0 0 1-.12-.03.201.201 0 0 1-.081-.081l-1.443-2.246V65.835h-.471v-3.572h.411a.374.374 0 0 1 .115.012c.034.015.06.039.076.069l1.423 2.203c.028.04.052.083.071.128ZM84.244 64.497v1.34H83.7v-3.574h1.216c.23-.004.459.023.679.078.176.044.34.12.48.223a.92.92 0 0 1 .272.35c.065.146.096.302.093.458a.993.993 0 0 1-.395.815c-.14.107-.304.188-.483.236a2.3 2.3 0 0 1-.657.083l-.66-.01Zm0-.384h.66c.144.002.286-.017.423-.054a.924.924 0 0 0 .305-.154.686.686 0 0 0 .25-.538.604.604 0 0 0-.054-.291.688.688 0 0 0-.19-.244 1.172 1.172 0 0 0-.734-.192h-.66v1.473ZM91.573 65.842h-.43a.205.205 0 0 1-.12-.033.224.224 0 0 1-.072-.083l-.37-.864h-1.862l-.385.864a.196.196 0 0 1-.068.08.205.205 0 0 1-.123.036h-.43l1.635-3.58h.567l1.658 3.58Zm-2.7-1.329h1.539l-.65-1.457c-.049-.11-.09-.222-.122-.336l-.063.187a1.69 1.69 0 0 1-.06.152l-.643 1.454ZM93.929 62.28c.032.015.06.037.082.063l2.385 2.699v-2.779h.488v3.58h-.272a.265.265 0 0 1-.112-.022.298.298 0 0 1-.087-.066l-2.383-2.696a.974.974 0 0 1 0 .123v2.66h-.488v-3.58h.289c.033 0 .067.006.098.017ZM100.903 64.419v1.421h-.545V64.42l-1.508-2.156h.488a.196.196 0 0 1 .117.03c.03.024.055.051.074.081l.943 1.391c.038.06.071.114.098.166.028.052.05.102.069.151l.071-.154a1.21 1.21 0 0 1 .092-.163l.93-1.4a.35.35 0 0 1 .071-.076.181.181 0 0 1 .117-.035h.494l-1.511 2.165ZM78.731 56.256c.238.026.478.047.72.066 3.679-1.43 6.791-3.77 8.948-6.728 2.156-2.958 3.261-6.403 3.177-9.904l-4.054-3.522c.824 3.727.438 7.58-1.114 11.128s-4.21 6.65-7.677 8.96Z" fill="#AFB1B8"/><path d="m77.284 56.092.109.02c3.704-2.303 6.528-5.517 8.106-9.228 1.579-3.711 1.84-7.749.75-11.59l-5.775-5.017c2.335 4.124 3.275 8.74 2.71 13.31-.564 4.57-2.61 8.906-5.9 12.505ZM96.868 43.827c-.981 3.846-3.364 7.315-6.794 9.892a21.633 21.633 0 0 1-3.229 2.013c2.794-.713 5.362-1.974 7.505-3.686 2.144-1.712 3.807-3.829 4.86-6.187l-2.342-2.032Z" fill="#AFB1B8"/><path d="m95.95 43.26-3.335-2.897c-.064 3.303-1.145 6.531-3.13 9.348-1.986 2.818-4.804 5.122-8.16 6.673h.016c.748 0 1.495-.04 2.238-.116 3.138-1.113 5.909-2.883 8.068-5.153 2.158-2.27 3.636-4.968 4.302-7.855ZM77.766 28.16l-3.978-3.46c-3.556 1.194-6.614 3.293-8.775 6.022-2.16 2.73-3.322 5.962-3.333 9.274.013 3.66 1.431 7.212 4.03 10.093 2.597 2.88 6.227 4.927 10.314 5.814 3.648-3.862 5.785-8.634 6.098-13.623.313-4.99-1.213-9.935-4.356-14.12ZM105.14 42.727c-.014-4.342-2.006-8.503-5.54-11.574-3.534-3.07-8.324-4.801-13.322-4.813-2.31-.003-4.6.368-6.753 1.091l24.355 21.162a14.358 14.358 0 0 0 1.26-5.866Z" fill="#AFB1B8"/></svg>
<svg width="170" height="92" fill="none" xmlns="http://www.w3.org/2000/svg"><symbol id="client4"><rect x=".5" y=".5" width="169" height="91" rx="3.5" stroke="#2196F3"/><path d="M56.146 37.103h-.003c-2.398 0-4.342 1.727-4.342 3.858v.003c0 2.131 1.944 3.859 4.342 3.859h.003c2.398 0 4.342-1.728 4.342-3.859v-.002c0-2.132-1.944-3.86-4.342-3.86ZM88.195 35.87c-.007-2.96-1.333-5.798-3.688-7.891-2.355-2.093-5.547-3.272-8.877-3.279-3.332.005-6.525 1.184-8.882 3.277-2.356 2.094-3.683 4.931-3.69 7.892v16.323s25.134-2.488 25.137-16.32v-.003ZM43 57.55c.006 2.06.93 4.033 2.568 5.49 1.638 1.456 3.859 2.277 6.176 2.283 2.317-.006 4.537-.827 6.176-2.283 1.638-1.456 2.562-3.429 2.568-5.488V46.194S43 47.927 43 57.55Zm8.744 2.034c-.453 0-.895-.119-1.272-.343a2.107 2.107 0 0 1-.843-.913 1.825 1.825 0 0 1-.13-1.175c.088-.395.306-.758.626-1.042.32-.285.728-.479 1.172-.557a2.558 2.558 0 0 1 1.324.115c.418.154.776.415 1.027.75.252.335.386.728.386 1.13.001.268-.057.534-.172.782a2.036 2.036 0 0 1-.496.662c-.212.19-.465.34-.744.443a2.539 2.539 0 0 1-.878.156v-.008ZM69.418 58.464H67.73v1.743h-.879V55.94h2.778v.712H67.73v1.102h1.688v.709Zm4.224-.293c0 .42-.074.788-.222 1.104-.149.317-.362.56-.64.733a1.755 1.755 0 0 1-.948.258c-.354 0-.67-.085-.947-.255a1.695 1.695 0 0 1-.644-.727 2.511 2.511 0 0 1-.231-1.09v-.21c0-.42.075-.79.225-1.108.152-.32.366-.566.642-.735.277-.172.593-.258.949-.258.355 0 .67.086.946.258.277.17.491.415.642.735.152.318.228.686.228 1.104v.19Zm-.89-.194c0-.447-.08-.787-.24-1.02a.783.783 0 0 0-.686-.348.782.782 0 0 0-.683.346c-.16.229-.241.564-.243 1.008v.208c0 .435.08.773.24 1.013.16.24.39.36.692.36a.775.775 0 0 0 .68-.345c.158-.232.238-.57.24-1.014v-.208Zm3.74 1.11a.447.447 0 0 0-.175-.38c-.117-.09-.328-.184-.633-.281a4.575 4.575 0 0 1-.723-.293c-.485-.262-.727-.615-.727-1.058 0-.23.065-.436.193-.615.131-.182.318-.323.56-.425.244-.101.518-.152.82-.152.305 0 .576.055.815.167.238.11.423.264.553.466.133.2.2.43.2.685h-.88c0-.195-.06-.347-.184-.454-.123-.11-.296-.164-.518-.164-.215 0-.382.046-.501.138a.426.426 0 0 0-.179.357c0 .139.07.255.208.349.14.093.347.181.618.263.5.15.864.337 1.093.56.228.222.343.5.343.832 0 .369-.14.66-.42.87-.278.209-.654.314-1.127.314-.328 0-.627-.06-.897-.18a1.438 1.438 0 0 1-.618-.494 1.27 1.27 0 0 1-.21-.727h.881c0 .47.281.706.844.706.209 0 .372-.042.49-.126a.418.418 0 0 0 .175-.357Zm4.691-2.434h-1.306v3.554h-.88v-3.554H77.71v-.712h3.474v.712Zm3.07 1.705h-1.687v1.143h1.98v.706h-2.859V55.94h2.854v.712h-1.975v1.017h1.688v.688Zm2.388.287h-.7v1.562h-.879V55.94h1.585c.504 0 .893.113 1.166.337.274.225.41.542.41.952 0 .291-.063.535-.19.73a1.282 1.282 0 0 1-.571.463l.922 1.743v.04h-.943l-.8-1.56Zm-.7-.712h.71c.22 0 .39-.055.512-.166a.607.607 0 0 0 .181-.466c0-.202-.057-.36-.172-.475-.114-.115-.288-.173-.525-.173h-.706v1.28Zm5.326.771v1.503h-.879V55.94h1.664c.32 0 .602.059.844.176.244.117.432.284.563.501.13.215.196.46.196.735 0 .418-.144.748-.43.99-.286.24-.681.361-1.187.361h-.77Zm0-.712h.785c.233 0 .41-.055.53-.164.124-.11.185-.266.185-.469a.704.704 0 0 0-.184-.507c-.123-.128-.293-.195-.51-.199h-.806v1.34Zm5.56.366H95.14v1.143h1.98v.706h-2.859V55.94h2.854v.712H95.14v1.017h1.688v.688Zm4.079-1.705h-1.307v3.554h-.879v-3.554h-1.289v-.712h3.475v.712Zm3.07 1.705h-1.687v1.143h1.98v.706h-2.859V55.94h2.853v.712h-1.974v1.017h1.687v.688Zm2.388.287h-.7v1.562h-.879V55.94h1.585c.504 0 .892.113 1.166.337.273.225.41.542.41.952 0 .291-.063.535-.19.73a1.284 1.284 0 0 1-.572.463l.923 1.743v.04h-.943l-.8-1.56Zm-.7-.712h.709c.22 0 .391-.055.512-.166.122-.114.182-.27.182-.466 0-.202-.058-.36-.173-.475-.113-.115-.288-.173-.524-.173h-.706v1.28Zm5.165 1.155a.448.448 0 0 0-.176-.381c-.117-.09-.328-.184-.633-.281a4.56 4.56 0 0 1-.723-.293c-.485-.262-.727-.615-.727-1.058 0-.23.064-.436.193-.615.131-.182.318-.323.56-.425.244-.101.518-.152.82-.152.305 0 .576.055.815.167.238.11.423.264.553.466.133.2.2.43.2.685h-.879c0-.195-.062-.347-.185-.454-.123-.11-.296-.164-.518-.164-.215 0-.382.046-.501.138a.424.424 0 0 0-.179.357c0 .139.069.255.208.349.141.093.347.181.618.263.5.15.864.337 1.093.56.228.222.343.5.343.832 0 .369-.14.66-.419.87-.28.209-.656.314-1.128.314-.328 0-.627-.06-.897-.18a1.444 1.444 0 0 1-.618-.494 1.268 1.268 0 0 1-.211-.727h.882c0 .47.281.706.844.706.209 0 .372-.042.489-.126a.419.419 0 0 0 .176-.357Z" fill="#2196F3"/></svg>
<svg width="170" height="92" fill="none" xmlns="http://www.w3.org/2000/svg"><symbol id="client5"><rect x=".5" y=".5" width="169" height="91" rx="3.5" stroke="#AFB1B8"/><path d="M58.757 60.735c.244.276.373.622.367.977a1.43 1.43 0 0 1-.131.676 1.558 1.558 0 0 1-.438.558 2.627 2.627 0 0 1-1.651.45H54v-6.19h2.844a2.593 2.593 0 0 1 1.576.41c.184.142.33.32.425.52.096.202.139.42.127.64.016.34-.1.677-.33.946-.221.246-.526.416-.866.484.385.064.733.252.98.53Zm-3.406-.934h1.216c.276.018.55-.055.773-.206a.738.738 0 0 0 .207-.275.68.68 0 0 0 .054-.33.702.702 0 0 0-.055-.329.759.759 0 0 0-.203-.276 1.255 1.255 0 0 0-.796-.209H55.35v1.625Zm2.108 2.374a.777.777 0 0 0 .224-.284.712.712 0 0 0 .063-.345.722.722 0 0 0-.066-.35.788.788 0 0 0-.228-.285 1.338 1.338 0 0 0-.826-.224h-1.275v1.703h1.292c.29.015.578-.06.816-.215ZM64.57 63.397l-1.581-2.42h-.595v2.42h-1.361v-6.191h2.577a2.699 2.699 0 0 1 1.793.526c.36.336.578.779.613 1.248a1.86 1.86 0 0 1-.421 1.314 2.148 2.148 0 0 1-1.229.629l1.685 2.474h-1.48Zm-2.176-3.264h1.113c.773 0 1.16-.312 1.16-.937a.852.852 0 0 0-.063-.375.917.917 0 0 0-.221-.321 1.282 1.282 0 0 0-.876-.251h-1.126l.013 1.884ZM72.01 62.15h-2.712l-.479 1.247h-1.427l2.49-6.122h1.543l2.481 6.122H72.48l-.469-1.246Zm-.363-.937-.991-2.613-.991 2.613h1.982ZM81.322 63.397h-1.35l-3.03-4.21v4.21h-1.348v-6.192h1.348l3.03 4.235v-4.235h1.35v6.192ZM89.033 61.915c-.28.467-.705.848-1.223 1.092a4.288 4.288 0 0 1-1.9.39h-2.404v-6.191h2.405a4.376 4.376 0 0 1 1.9.38c.516.24.943.616 1.222 1.08.278.504.423 1.06.423 1.625 0 .564-.145 1.12-.423 1.624Zm-1.546-.148a2.16 2.16 0 0 0 .597-1.478c0-.542-.212-1.066-.597-1.477a2.488 2.488 0 0 0-1.692-.527h-.938v4.008h.938a2.49 2.49 0 0 0 1.692-.526ZM72.856 22.767s17.439 6.028 17.069 14.751v14.754s-17.426-6.03-17.063-14.754l-.006-14.751ZM105.46 48.818c3.294-2.075 7.103-3.36 11.08-3.738v-4.62c-4.582 1.618-8.469 4.55-11.08 8.358Z" fill="#AFB1B8"/><path d="M103.482 50.21c2.695-4.97 7.368-8.805 13.058-10.717V26.185s-24.835 8.587-24.31 21.009V68.2s1.107-.384 2.848-1.104c0-.671 0-1.349.08-2.03.513-5.766 3.507-11.11 8.324-14.857Z" fill="#AFB1B8"/><path d="M101.12 58.013c.13-1.457.421-2.898.869-4.301-3 3.235-4.816 7.25-5.193 11.479-.037.399-.057.798-.067 1.21a74.704 74.704 0 0 0 4.777-2.305c-.44-2.001-.57-4.049-.386-6.083ZM102.107 58.089a19.041 19.041 0 0 0 .308 5.508c6.785-3.718 14.409-9.462 14.115-16.403v-.605c-4.848.497-9.383 2.437-12.91 5.523a19.292 19.292 0 0 0-1.513 5.977Z" fill="#AFB1B8"/></svg>
<svg width="170" height="92" fill="none" xmlns="http://www.w3.org/2000/svg"><symbol id="client6"><rect x=".5" y=".5" width="169" height="91" rx="3.5" stroke="#AFB1B8"/><path d="M85.425 43.408a2.947 2.947 0 0 1-.605-1.988v-2.884c0-.883.2-1.555.602-2.015.4-.46 1.089-.688 2.065-.686.917 0 1.569.196 1.954.587.42.499.624 1.109.577 1.724v.678h-1.64v-.686c.005-.225-.01-.45-.048-.672a.65.65 0 0 0-.235-.399.95.95 0 0 0-.594-.156 1.005 1.005 0 0 0-.625.165.768.768 0 0 0-.272.44 3.332 3.332 0 0 0-.065.712v3.5c-.026.337.047.675.21.982a.77.77 0 0 0 .328.238.9.9 0 0 0 .424.056.893.893 0 0 0 .58-.159.704.704 0 0 0 .245-.425c.039-.232.056-.467.051-.701v-.71h1.641v.648a2.64 2.64 0 0 1-.567 1.813c-.377.428-1.02.642-1.964.642s-1.658-.229-2.062-.704ZM92.257 43.438c-.415-.45-.622-1.103-.622-1.969v-3.032c0-.857.207-1.505.622-1.945.414-.44 1.107-.659 2.079-.657.965 0 1.654.22 2.069.657.414.44.625 1.088.625 1.945v3.032c0 .857-.21 1.514-.632 1.966-.421.451-1.107.677-2.062.677-.955 0-1.661-.229-2.08-.674Zm2.843-.728c.149-.28.216-.589.197-.897v-3.714a1.65 1.65 0 0 0-.193-.88.776.776 0 0 0-.335-.241.907.907 0 0 0-.433-.052.918.918 0 0 0-.434.052.786.786 0 0 0-.337.241c-.15.275-.217.578-.197.88v3.731c-.02.309.047.617.197.898.095.094.213.17.346.222a1.158 1.158 0 0 0 .843 0c.133-.052.25-.128.346-.222v-.018ZM99.004 35.924h1.766l1.328 5.595 1.359-5.595h1.719L105.35 44h-1.271l-.136-5.613L102.632 44h-1.019l-1.359-5.633-.126 5.633h-1.284l.16-8.076ZM107.33 35.924h2.752c1.585 0 2.378.764 2.378 2.293 0 1.464-.835 2.196-2.504 2.194h-.937V44h-1.699l.01-8.077Zm2.351 3.451c.168.019.338.005.5-.039.161-.044.309-.117.434-.216.195-.273.281-.593.245-.912a2.526 2.526 0 0 0-.082-.733.582.582 0 0 0-.125-.222.7.7 0 0 0-.214-.162 1.762 1.762 0 0 0-.758-.13h-.659v2.414h.659ZM114.909 35.924h1.825L118.606 44h-1.584l-.37-1.862h-1.627L114.644 44h-1.606l1.871-8.076Zm1.56 5.279-.636-3.39-.635 3.39h1.271ZM120.117 35.924h1.189l2.276 4.607v-4.607h1.41V44h-1.131l-2.29-4.81V44h-1.457l.003-8.076ZM128.294 40.92l-1.892-4.985h1.594l1.155 3.203 1.083-3.203h1.56l-1.869 4.986V44h-1.631v-3.08ZM88.048 47.532v.422h-1.386v3.282h-.581v-3.282h-1.393v-.422h3.36ZM92.393 51.236h-.449a.2.2 0 0 1-.126-.035.194.194 0 0 1-.074-.085l-.401-.88H89.42l-.4.88a.243.243 0 0 1-.062.1.208.208 0 0 1-.126.035h-.448l1.698-3.704h.592l1.719 3.69Zm-2.813-1.375h1.603l-.68-1.508a2.699 2.699 0 0 1-.125-.349c-.024.07-.044.138-.064.197l-.062.155-.672 1.505ZM95.321 50.872c.106.005.213.005.32 0 .091-.008.182-.023.271-.044.083-.017.165-.04.245-.067.075-.027.15-.059.227-.091v-.833h-.679a.137.137 0 0 1-.092-.03.086.086 0 0 1-.026-.03.074.074 0 0 1-.008-.037v-.284h1.318v1.42a2.578 2.578 0 0 1-.716.301c-.14.036-.281.061-.425.077-.165.016-.33.023-.496.023a2.59 2.59 0 0 1-.856-.138 2.09 2.09 0 0 1-.68-.387 1.79 1.79 0 0 1-.438-.587 1.851 1.851 0 0 1-.156-.768 1.92 1.92 0 0 1 .153-.774c.097-.22.247-.42.438-.587.194-.167.425-.297.68-.384.29-.095.6-.142.91-.138.158 0 .316.01.472.032.138.02.274.051.404.094.12.038.233.088.34.147.104.057.203.122.296.193l-.163.229a.142.142 0 0 1-.055.05.17.17 0 0 1-.078.02.222.222 0 0 1-.105-.029 2.113 2.113 0 0 1-.167-.088 1.504 1.504 0 0 0-.227-.1 2.127 2.127 0 0 0-.313-.082 2.614 2.614 0 0 0-.431-.032 2.009 2.009 0 0 0-.656.103c-.189.065-.36.165-.5.293a1.29 1.29 0 0 0-.315.46 1.732 1.732 0 0 0 0 1.235c.074.175.19.333.34.467.139.127.308.227.495.293.217.064.445.089.673.073ZM100.736 50.814h1.855v.422h-2.422v-3.704h.581l-.014 3.282ZM104.521 51.236h-.581v-3.704h.581v3.704ZM106.681 47.55a.28.28 0 0 1 .089.067l2.483 2.792a.97.97 0 0 1 0-.132V47.517h.506v3.72h-.292a.277.277 0 0 1-.126-.021.322.322 0 0 1-.091-.07l-2.48-2.79v2.88h-.486v-3.704h.302c.033 0 .065.006.095.017ZM114.036 47.532v.407h-2.058v1.223h1.668v.393h-1.668v1.264h2.058v.408h-2.656v-3.695h2.656ZM53.162 24.655l25.795 6.324v22.158l-25.795-6.32V24.654Zm-1.655-1.888v25.126l29.1 7.136V29.905l-29.1-7.138Z" fill="#AFB1B8"/><path d="M67.104 66.692 38 59.551V34.427l29.104 7.139v25.126Z" fill="#AFB1B8"/><path d="m51.99 24.371 25.458 6.244-10.826 9.35-25.463-6.247 10.83-9.347Zm-.483-1.604L38 34.427l29.104 7.14 13.504-11.662-29.1-7.138ZM68.741 65.279l11.867-10.247-11.867-2.913v13.16Z" fill="#AFB1B8"/></svg>
<svg width="16" height="12" fill="none" xmlns="http://www.w3.org/2000/svg"><symbol id="envelope"><path d="M14.5 0h-13C.673 0 0 .673 0 1.5v9c0 .827.673 1.5 1.5 1.5h13c.827 0 1.5-.673 1.5-1.5v-9c0-.827-.673-1.5-1.5-1.5Zm0 1c.068 0 .133.014.192.039L8 6.839l-6.692-5.8A.498.498 0 0 1 1.5 1h13Zm0 10h-13a.5.5 0 0 1-.5-.5V2.095l6.672 5.783a.5.5 0 0 0 .656 0L15 2.095V10.5a.5.5 0 0 1-.5.5Z" fill="#2196F3"/></svg>
<svg width="10" height="16" fill="none" xmlns="http://www.w3.org/2000/svg"><symbol id="smartphone"><path d="M8.5 0h-7C.673 0 0 .673 0 1.5v13c0 .827.673 1.5 1.5 1.5h7c.827 0 1.5-.673 1.5-1.5v-13C10 .673 9.327 0 8.5 0Zm-7 1h7a.5.5 0 0 1 .5.5V12H1V1.5a.5.5 0 0 1 .5-.5Zm7 14h-7a.5.5 0 0 1-.5-.5V13h8v1.5a.5.5 0 0 1-.5.5Z" fill="#757575"/><path d="M2.354 13.739a.445.445 0 0 1 0 .66.525.525 0 0 1-.708 0 .445.445 0 0 1 0-.66.525.525 0 0 1 .708 0Z" fill="#757575"/></svg>
<svg width="44" height="44" symbol id="elipse" viewBox="0 0 44 44" fill="none" xmlns="http://www.w3.org/2000/svg"><path d="M44 21.9999C44 28.0751 41.5376 33.5751 37.5564 37.5563C33.5751 41.5375 28.0751 43.9999 22 43.9999C15.9249 43.9999 10.4249 41.5375 6.44365 37.5563C2.46243 33.5751 0 28.0751 0 21.9999C0 15.9248 2.46243 10.4248 6.44365 6.44359C10.4249 2.46237 15.9249 -6.10352e-05 22 -6.10352e-05C28.0751 -6.10352e-05 33.5751 2.46237 37.5564 6.44359C41.5376 10.4248 44 15.9248 44 21.9999Z" fill="white"/><g clip-path="url(#clip0_2286_902)"><path d="M31.9804 17.8801C31.9336 16.8174 31.7617 16.0868 31.5156 15.4537C31.2616 14.7818 30.8709 14.1801 30.359 13.68C29.8589 13.1721 29.2533 12.7774 28.5891 12.5274C27.9524 12.2813 27.2256 12.1094 26.163 12.0626C25.0924 12.0118 24.7525 12 22.0371 12C19.3217 12 18.9818 12.0118 17.9152 12.0586C16.8525 12.1055 16.1219 12.2775 15.489 12.5235C14.8169 12.7774 14.2153 13.1681 13.7152 13.68C13.2073 14.1801 12.8127 14.7857 12.5626 15.4499C12.3164 16.0868 12.1446 16.8134 12.0977 17.8761C12.0469 18.9467 12.0352 19.2866 12.0352 22.002C12.0352 24.7173 12.0469 25.0572 12.0938 26.1239C12.1406 27.1865 12.3126 27.9171 12.5588 28.5502C12.8127 29.2221 13.2073 29.8238 13.7152 30.3239C14.2153 30.8318 14.8209 31.2265 15.4851 31.4765C16.1219 31.7226 16.8486 31.8945 17.9114 31.9413C18.9779 31.9883 19.3179 31.9999 22.0333 31.9999C24.7487 31.9999 25.0885 31.9883 26.1552 31.9413C27.2179 31.8945 27.9484 31.7226 28.5813 31.4765C29.9254 30.9568 30.9881 29.8941 31.5078 28.5502C31.7538 27.9133 31.9258 27.1865 31.9727 26.1239C32.0195 25.0572 32.0313 24.7173 32.0313 22.002C32.0313 19.2866 32.0273 18.9467 31.9804 17.8801ZM30.1794 26.0457C30.1364 27.0225 29.9723 27.5499 29.8356 27.9015C29.4995 28.7728 28.808 29.4643 27.9367 29.8004C27.5851 29.9372 27.0538 30.1012 26.0809 30.1441C25.026 30.1911 24.7096 30.2027 22.0411 30.2027C19.3726 30.2027 19.0522 30.1911 18.0011 30.1441C17.0244 30.1012 16.4969 29.9372 16.1453 29.8004C15.7117 29.6402 15.317 29.3862 14.9967 29.0541C14.6646 28.7298 14.4106 28.3391 14.2504 27.9055C14.1137 27.5539 13.9496 27.0225 13.9067 26.0497C13.8597 24.9948 13.8481 24.6783 13.8481 22.0097C13.8481 19.3412 13.8597 19.0209 13.9067 17.9699C13.9496 16.9932 14.1137 16.4657 14.2504 16.1141C14.4106 15.6804 14.6646 15.2859 15.0007 14.9654C15.3248 14.6333 15.7155 14.3793 16.1493 14.2192C16.5009 14.0825 17.0323 13.9184 18.0051 13.8754C19.06 13.8285 19.3765 13.8168 22.0449 13.8168C24.7174 13.8168 25.0337 13.8285 26.0848 13.8754C27.0616 13.9184 27.589 14.0825 27.9407 14.2192C28.3742 14.3793 28.7689 14.6333 29.0893 14.9654C29.4213 15.2897 29.6753 15.6804 29.8356 16.1141C29.9723 16.4657 30.1364 16.997 30.1794 17.9699C30.2263 19.0248 30.238 19.3412 30.238 22.0097C30.238 24.6783 30.2263 24.9908 30.1794 26.0457Z" fill="#AFB1B8"/><path d="M22.0371 16.8642C19.2007 16.8642 16.8994 19.1654 16.8994 22.0019C16.8994 24.8385 19.2007 27.1396 22.0371 27.1396C24.8737 27.1396 27.1749 24.8385 27.1749 22.0019C27.1749 19.1654 24.8737 16.8642 22.0371 16.8642ZM22.0371 25.3346C20.197 25.3346 18.7044 23.8422 18.7044 22.0019C18.7044 20.1617 20.197 18.6692 22.0371 18.6692C23.8774 18.6692 25.3698 20.1617 25.3698 22.0019C25.3698 23.8422 23.8774 25.3346 22.0371 25.3346Z" fill="#AFB1B8"/><path d="M28.5775 16.6611C28.5775 17.3235 28.0404 17.8605 27.3779 17.8605C26.7155 17.8605 26.1785 17.3235 26.1785 16.6611C26.1785 15.9986 26.7155 15.4617 27.3779 15.4617C28.0404 15.4617 28.5775 15.9986 28.5775 16.6611Z" fill="#AFB1B8"/></g><defs><clipPath id="clip0_2286_902"><rect width="20" height="20" fill="white" transform="translate(12 12)"/></clipPath></defs></svg>
<svg width="44" height="44" symbol id="elipse1" viewBox="0 0 44 44" fill="none" xmlns="http://www.w3.org/2000/svg"><path d="M44 21.9999C44 28.0751 41.5376 33.5751 37.5564 37.5563C33.5751 41.5375 28.0751 43.9999 22 43.9999C15.9249 43.9999 10.4249 41.5375 6.44365 37.5563C2.46243 33.5751 0 28.0751 0 21.9999C0 15.9248 2.46243 10.4248 6.44365 6.44359C10.4249 2.46237 15.9249 -6.10352e-05 22 -6.10352e-05C28.0751 -6.10352e-05 33.5751 2.46237 37.5564 6.44359C41.5376 10.4248 44 15.9248 44 21.9999Z" fill="white"/><g clip-path="url(#clip0_2286_896)"><path d="M32 15.7988C31.2563 16.125 30.4637 16.3412 29.6375 16.4462C30.4875 15.9388 31.1363 15.1412 31.4412 14.18C30.6488 14.6525 29.7738 14.9863 28.8412 15.1725C28.0887 14.3713 27.0162 13.875 25.8462 13.875C23.5763 13.875 21.7487 15.7175 21.7487 17.9763C21.7487 18.3012 21.7762 18.6137 21.8438 18.9112C18.435 18.745 15.4188 17.1113 13.3925 14.6225C13.0387 15.2363 12.8313 15.9388 12.8313 16.695C12.8313 18.115 13.5625 19.3737 14.6525 20.1025C13.9937 20.09 13.3475 19.8988 12.8 19.5975C12.8 19.61 12.8 19.6262 12.8 19.6425C12.8 21.635 14.2212 23.29 16.085 23.6712C15.7512 23.7625 15.3875 23.8062 15.01 23.8062C14.7475 23.8062 14.4825 23.7913 14.2337 23.7362C14.765 25.36 16.2725 26.5538 18.065 26.5925C16.67 27.6838 14.8988 28.3412 12.9813 28.3412C12.645 28.3412 12.3225 28.3263 12 28.285C13.8162 29.4563 15.9688 30.125 18.29 30.125C25.835 30.125 29.96 23.875 29.96 18.4575C29.96 18.2762 29.9538 18.1013 29.945 17.9275C30.7588 17.35 31.4425 16.6288 32 15.7988Z" fill="#AFB1B8"/></g><defs><clipPath id="clip0_2286_896"><rect width="20" height="20" fill="white" transform="translate(12 12)"/></clipPath></defs></svg>
<svg width="44" height="44" symbol id="elipse2" viewBox="0 0 44 44" fill="none" xmlns="http://www.w3.org/2000/svg"><path d="M44 21.9999C44 28.0751 41.5376 33.5751 37.5564 37.5563C33.5751 41.5375 28.0751 43.9999 22 43.9999C15.9249 43.9999 10.4249 41.5375 6.44365 37.5563C2.46243 33.5751 0 28.0751 0 21.9999C0 15.9248 2.46243 10.4248 6.44365 6.44359C10.4249 2.46237 15.9249 -6.10352e-05 22 -6.10352e-05C28.0751 -6.10352e-05 33.5751 2.46237 37.5564 6.44359C41.5376 10.4248 44 15.9248 44 21.9999Z" fill="white"/><g clip-path="url(#clip0_2286_892)"><path d="M25.3309 15.3208H27.1567V12.1408C26.8417 12.0975 25.7584 12 24.4967 12C21.8642 12 20.0609 13.6558 20.0609 16.6992V19.5H17.1559V23.055H20.0609V32H23.6226V23.0558H26.4101L26.8526 19.5008H23.6217V17.0517C23.6226 16.0242 23.8992 15.3208 25.3309 15.3208Z" fill="#AFB1B8"/></g><defs><clipPath id="clip0_2286_892"><rect width="20" height="20" fill="white" transform="translate(12 12)"/></clipPath></defs></svg>
<svg width="44" height="44" symbol id="elipse3" viewBox="0 0 44 44" fill="none" xmlns="http://www.w3.org/2000/svg"><path d="M44 21.9999C44 28.0751 41.5376 33.5751 37.5564 37.5563C33.5751 41.5375 28.0751 43.9999 22 43.9999C15.9249 43.9999 10.4249 41.5375 6.44365 37.5563C2.46243 33.5751 0 28.0751 0 21.9999C0 15.9248 2.46243 10.4248 6.44365 6.44359C10.4249 2.46237 15.9249 -6.10352e-05 22 -6.10352e-05C28.0751 -6.10352e-05 33.5751 2.46237 37.5564 6.44359C41.5376 10.4248 44 15.9248 44 21.9999Z" fill="white"/><g clip-path="url(#clip0_2286_886)"><path d="M31.995 32V31.9992H32V24.6642C32 21.0759 31.2275 18.3117 27.0325 18.3117C25.0158 18.3117 23.6625 19.4184 23.11 20.4675H23.0517V18.6467H19.0742V31.9992H23.2158V25.3875C23.2158 23.6467 23.5458 21.9634 25.7017 21.9634C27.8258 21.9634 27.8575 23.95 27.8575 25.4992V32H31.995Z" fill="#AFB1B8"/><path d="M12.33 18.6475H16.4767V32H12.33V18.6475Z" fill="#AFB1B8"/><path d="M14.4017 12C13.0758 12 12 13.0758 12 14.4017C12 15.7275 13.0758 16.8258 14.4017 16.8258C15.7275 16.8258 16.8033 15.7275 16.8033 14.4017C16.8025 13.0758 15.7267 12 14.4017 12V12Z" fill="#AFB1B8"/></g><defs><clipPath id="clip0_2286_886"><rect width="20" height="20" fill="white" transform="translate(12 12)"/></clipPath></defs></svg>
<svg width="66" height="70" symbol id="group" viewBox="0 0 66 70" fill="none" xmlns="http://www.w3.org/2000/svg">
<path d="M65.3163 48.3385L46.8468 29.7337L48.8966 19.6373C49.4256 19.8438 49.9879 19.9517 50.5556 19.9558H50.5696C53.1777 19.9866 55.3169 17.8974 55.3479 15.2893C55.3788 12.6812 53.2894 10.542 50.6813 10.5111C48.0732 10.4803 45.934 12.5695 45.9031 15.1776C45.8965 15.7357 45.9888 16.2905 46.176 16.8163L35.326 18.1405L17.6276 0.35C17.4105 0.128479 17.1141 0.00247917 16.804 0C16.4977 0.00160417 16.2044 0.123521 15.9873 0.3395L12.6786 3.6295C12.2232 4.08508 12.2232 4.82358 12.6786 5.27917L14.459 7.08517C7.56162 19.7681 9.80191 35.4741 19.9703 45.7228C20.0636 45.8121 20.1718 45.8843 20.29 45.9363C20.2165 46.3311 20.1781 46.7317 20.1756 47.1333V60.6667H6.17562C2.95562 60.6705 0.346077 63.28 0.342285 66.5V68.8333C0.342285 69.4776 0.86466 70 1.50895 70H55.1756C55.8199 70 56.3423 69.4776 56.3423 68.8333V66.5C56.3385 63.28 53.729 60.6705 50.509 60.6667H36.509V54.6688C38.7021 55.1288 40.9367 55.3633 43.1776 55.3688C48.5548 55.363 53.8464 54.0225 58.5776 51.4675L60.3673 53.2677C60.5844 53.4892 60.8808 53.6152 61.191 53.6177C61.4972 53.6161 61.7905 53.4941 62.0076 53.2782L65.3163 49.9882C65.7717 49.5326 65.7717 48.7941 65.3163 48.3385ZM48.9246 13.6348C49.8383 12.726 51.3157 12.7301 52.2244 13.6437C53.1332 14.5574 53.1291 16.0348 52.2155 16.9435C51.7781 17.3785 51.1864 17.6226 50.5695 17.6225H50.5625C49.2739 17.6158 48.2345 16.5658 48.2412 15.2771C48.2445 14.6602 48.4918 14.0699 48.9291 13.6348H48.9246ZM46.1783 21.301L44.8693 27.7445L42.298 25.158L46.1783 21.301ZM44.853 19.3282L40.653 23.5037L37.4038 20.237L44.853 19.3282ZM50.509 63C52.442 63 54.009 64.567 54.009 66.5V67.6667H2.67562V66.5C2.67562 64.567 4.2426 63 6.17562 63H50.509ZM34.1756 58.3333V60.6667H22.509V58.3333H34.1756ZM22.509 56V47.1333C22.509 44.303 25.1258 42 28.3423 42C31.5588 42 34.1756 44.303 34.1756 47.1333V56H22.509ZM36.509 52.29V47.1333C36.509 43.0162 32.8456 39.6667 28.3423 39.6667C25.4306 39.622 22.7079 41.1041 21.165 43.5738C12.2887 34.2249 10.2899 20.2875 16.1805 8.82073L56.872 49.7455C50.5886 52.9419 43.3857 53.8418 36.509 52.29ZM61.2038 50.7943L59.56 49.1412L16.7923 6.11567L15.1415 4.46133L16.7923 2.81633L34.15 20.272C34.1581 20.272 34.1628 20.2872 34.171 20.293L62.8593 49.1493L61.2038 50.7943Z" fill="#212121"/>
<path d="M28.3528 44.3333H28.3423C26.4093 44.3304 24.84 45.895 24.837 47.8281C24.8341 49.7611 26.3988 51.3304 28.3318 51.3333H28.3423C30.2753 51.3362 31.8446 49.7716 31.8475 47.8386C31.8505 45.9055 30.2858 44.3362 28.3528 44.3333ZM29.1695 48.6605C28.9498 48.8789 28.6522 49.0012 28.3423 49C27.698 48.9966 27.1784 48.4716 27.1817 47.8273C27.1834 47.5189 27.307 47.2237 27.5256 47.0062C27.7428 46.7902 28.036 46.6683 28.3423 46.6667C28.9866 46.67 29.5062 47.195 29.5028 47.8393C29.5012 48.1477 29.3776 48.4429 29.159 48.6605H29.1695Z" fill="#2196F3"/>
</svg>
<svg width="270" height="120" symbol id="group1" viewBox="0 0 270 120" fill="none" xmlns="http://www.w3.org/2000/svg">
<rect width="270" height="120" rx="4" fill="#F5F4FA"/>
<g clip-path="url(#clip0_2286_764)">
<path d="M168.461 58.4715C168.458 39.9819 153.466 24.9963 134.975 25C116.486 25.0037 101.5 39.9963 101.504 58.4859C101.507 73.0502 110.925 85.9413 124.8 90.3713C124.932 90.413 125.07 90.4343 125.208 90.4338C125.472 90.4333 125.73 90.3628 125.957 90.2287C126.253 90.0541 126.473 89.7764 126.577 89.449L135.032 62.6521C137.343 62.6404 139.207 60.7568 139.194 58.4459C139.183 56.1345 137.3 54.2706 134.988 54.2824C134.367 54.285 133.753 54.4282 133.194 54.7011L122.025 43.5302C121.471 42.9951 120.588 43.0106 120.053 43.5644C119.53 44.1054 119.53 44.962 120.053 45.503L131.216 56.6792C130.36 58.4277 130.849 60.5383 132.39 61.7303L124.334 87.2647C108.414 81.4002 100.262 63.7405 106.126 47.8203C111.991 31.9 129.65 23.7482 145.571 29.6127C161.491 35.4771 169.643 53.1374 163.778 69.0571C160.913 76.8351 155.026 83.1252 147.455 86.4989L146.584 82.3989C146.425 81.6454 145.684 81.1636 144.931 81.3233C144.693 81.3741 144.473 81.4857 144.291 81.6475L135.898 89.1409C135.322 89.653 135.271 90.5347 135.783 91.1105C135.95 91.2974 136.164 91.4362 136.403 91.5126L147.119 94.9327C147.852 95.1682 148.638 94.765 148.873 94.0312C148.948 93.7994 148.96 93.5527 148.91 93.3145L148.055 89.2915C160.445 84.0678 168.49 71.918 168.461 58.4715ZM134.983 57.0766C135.753 57.0766 136.378 57.7014 136.378 58.4715C136.378 59.2422 135.753 59.8665 134.983 59.8665C134.212 59.8665 133.588 59.2422 133.588 58.4715C133.588 57.7014 134.212 57.0766 134.983 57.0766ZM139.577 89.5916L144.355 85.3298L145.674 91.543L139.577 89.5916Z" fill="#212121"/>
<path d="M133.588 31.9673V34.7572C133.588 35.5279 134.212 36.1522 134.983 36.1522C135.753 36.1522 136.378 35.5279 136.378 34.7572V31.9673C136.378 31.1972 135.753 30.5724 134.983 30.5724C134.212 30.5724 133.588 31.1972 133.588 31.9673Z" fill="#2196F3"/>
<path d="M108.479 57.0765C107.708 57.0765 107.084 57.7014 107.084 58.4715C107.084 59.2421 107.708 59.8665 108.479 59.8665H111.269C112.039 59.8665 112.664 59.2421 112.664 58.4715C112.664 57.7014 112.039 57.0765 111.269 57.0765H108.479Z" fill="#2196F3"/>
<path d="M161.487 59.8665C162.257 59.8665 162.881 59.2421 162.881 58.4715C162.881 57.7014 162.257 57.0765 161.487 57.0765H158.697C157.926 57.0765 157.302 57.7014 157.302 58.4715C157.302 59.2421 157.926 59.8665 158.697 59.8665H161.487Z" fill="#2196F3"/>
</g>
<defs>
<clipPath id="clip0_2286_764">
<rect width="70" height="70" fill="white" transform="translate(100 25)"/>
</clipPath>
</defs>
</svg>
<svg width="270" height="120" symbol id="group2" viewBox="0 0 270 120" fill="none" xmlns="http://www.w3.org/2000/svg">
<rect width="270" height="120" rx="4" fill="#F5F4FA"/>
<g clip-path="url(#clip0_2286_774)">
<path d="M132.65 57.7351H134.982V68.2296H132.65V57.7351Z" fill="#2196F3"/>
<path d="M141.978 62.3993H144.31V68.2296H141.978V62.3993Z" fill="#2196F3"/>
<path d="M123.321 65.8975H125.653V68.2296H123.321V65.8975Z" fill="#2196F3"/>
<path d="M116.325 64.7314H118.657V68.2295H116.325V64.7314Z" fill="#2196F3"/>
<path d="M103.498 86.8865H159.469C161.401 86.8865 162.967 85.3202 162.967 83.3883V78.7241C162.967 76.7922 161.401 75.2259 159.469 75.2259H158.303V46.1468L164.926 39.8724C166.463 40.6303 168.324 40.1702 169.33 38.7815C170.337 37.3934 170.196 35.4821 168.997 34.2568C167.798 33.0315 165.89 32.8488 164.48 33.8241C163.07 34.8 162.569 36.6498 163.293 38.2036L158.303 42.9345V40.2442C158.303 38.3124 156.736 36.7461 154.805 36.7461H108.162C106.231 36.7461 104.664 38.3124 104.664 40.2442V75.2259H103.498C101.566 75.2259 100 76.7922 100 78.7241V83.3883C100 85.3202 101.566 86.8865 103.498 86.8865ZM166.465 35.58C167.109 35.58 167.631 36.1021 167.631 36.7461C167.631 37.39 167.109 37.9121 166.465 37.9121C165.821 37.9121 165.299 37.39 165.299 36.7461C165.299 36.1021 165.821 35.58 166.465 35.58ZM106.996 40.2442C106.996 39.6003 107.518 39.0782 108.162 39.0782H154.805C155.449 39.0782 155.971 39.6003 155.971 40.2442V45.1413L153.639 47.3573V42.5763C153.639 41.9324 153.116 41.4103 152.473 41.4103H110.495C109.851 41.4103 109.328 41.9324 109.328 42.5763V71.7277C109.328 72.3717 109.851 72.8938 110.495 72.8938H152.473C153.116 72.8938 153.639 72.3717 153.639 71.7277V50.5651L155.971 48.3554V75.2259H106.996V40.2442ZM117.491 55.403C115.913 55.3984 114.528 56.4495 114.108 57.9702C113.689 59.491 114.338 61.104 115.695 61.9091C117.051 62.7142 118.779 62.512 119.913 61.4149L123.966 63.4486C124.437 63.6844 125.008 63.5739 125.358 63.1805L133.974 53.4871L142.444 59.8337C142.899 60.1742 143.533 60.1378 143.945 59.7478L151.306 52.7748V70.5617H111.661V43.7424H151.306V49.5619L143.056 57.3747L134.515 50.9716C134.03 50.6084 133.348 50.6767 132.944 51.1293L124.21 60.9571L120.945 59.3242C120.969 59.1841 120.983 59.0429 120.989 58.9011C120.989 56.9693 119.423 55.403 117.491 55.403ZM118.657 58.9011C118.657 59.5451 118.135 60.0672 117.491 60.0672C116.847 60.0672 116.325 59.5451 116.325 58.9011C116.325 58.2572 116.847 57.7351 117.491 57.7351C118.135 57.7351 118.657 58.2572 118.657 58.9011ZM125.653 77.558H137.314V78.7241C137.314 79.368 136.792 79.8901 136.148 79.8901H126.819C126.175 79.8901 125.653 79.368 125.653 78.7241V77.558ZM102.332 78.7241C102.332 78.0801 102.854 77.558 103.498 77.558H123.321V78.7241C123.321 80.6559 124.887 82.2223 126.819 82.2223H136.148C138.08 82.2223 139.646 80.6559 139.646 78.7241V77.558H159.469C160.113 77.558 160.635 78.0801 160.635 78.7241V83.3883C160.635 84.0323 160.113 84.5544 159.469 84.5544H103.498C102.854 84.5544 102.332 84.0323 102.332 83.3883V78.7241Z" fill="#212121"/>
</g>
<defs>
<clipPath id="clip0_2286_774">
<rect width="70" height="70" fill="white" transform="translate(100 25)"/>
</clipPath>
</defs>
</svg>
<svg width="270" height="120" symbol id="group3" viewBox="0 0 270 120" fill="none" xmlns="http://www.w3.org/2000/svg">
<rect width="270" height="120" rx="4" fill="#F5F4FA"/>
<path d="M169.943 34.8964C169.806 34.4752 169.442 34.1673 169.002 34.103L164.823 33.4951L162.953 29.7081C162.561 28.9101 161.253 28.9101 160.861 29.7081L158.991 33.4951L154.811 34.1031C154.372 34.1673 154.008 34.4742 153.869 34.8965C153.732 35.3189 153.845 35.7832 154.164 36.0924L157.189 39.0407L156.475 43.2034C156.401 43.6409 156.58 44.0831 156.938 44.3445C157.301 44.6082 157.775 44.6408 158.168 44.4331L161.906 42.4672L165.644 44.4331C165.815 44.5229 166.002 44.5672 166.188 44.5672C166.429 44.5672 166.671 44.4926 166.874 44.3444C167.233 44.0831 167.413 43.6408 167.337 43.2033L166.623 39.0405L169.648 36.0923C169.965 35.7819 170.08 35.3187 169.943 34.8964ZM164.556 37.7991C164.282 38.0663 164.155 38.4536 164.221 38.8316L164.638 41.2688L162.45 40.1185C162.28 40.0286 162.093 39.9843 161.906 39.9843C161.72 39.9843 161.534 40.0286 161.362 40.1185L159.174 41.2688L159.591 38.8316C159.657 38.4536 159.531 38.0675 159.256 37.7991L157.484 36.0725L159.932 35.7166C160.312 35.6618 160.64 35.4226 160.811 35.0784L161.905 32.8617L162.999 35.0784C163.17 35.4225 163.497 35.6618 163.878 35.7166L166.325 36.0725L164.556 37.7991Z" fill="#2196F3"/>
<path d="M157.167 69.8923H154.834V72.2257H157.167V69.8923Z" fill="#2196F3"/>
<path d="M157.167 74.5591H154.834V76.8925H157.167V74.5591Z" fill="#2196F3"/>
<path d="M159.5 72.2257H157.167V74.5591H159.5V72.2257Z" fill="#2196F3"/>
<path d="M154.834 72.2257H152.5V74.5591H154.834V72.2257Z" fill="#2196F3"/>
<path d="M149 82.7259H146.667V85.0593H149V82.7259Z" fill="#2196F3"/>
<path d="M149 87.3926H146.667V89.726H149V87.3926Z" fill="#2196F3"/>
<path d="M151.334 85.0593H149V87.3927H151.334V85.0593Z" fill="#2196F3"/>
<path d="M146.667 85.0593H144.333V87.3927H146.667V85.0593Z" fill="#2196F3"/>
<path d="M135 78.0592H132.667V80.3926H135V78.0592Z" fill="#2196F3"/>
<path d="M135 82.7259H132.667V85.0593H135V82.7259Z" fill="#2196F3"/>
<path d="M137.333 80.3925H135V82.7259H137.333V80.3925Z" fill="#2196F3"/>
<path d="M132.667 80.3925H130.333V82.7259H132.667V80.3925Z" fill="#2196F3"/>
<path d="M112.833 38.3918H110.5V40.7252H112.833V38.3918Z" fill="#2196F3"/>
<path d="M112.833 43.0587H110.5V45.3921H112.833V43.0587Z" fill="#2196F3"/>
<path d="M115.166 40.7253H112.833V43.0587H115.166V40.7253Z" fill="#2196F3"/>
<path d="M110.5 40.7253H108.166V43.0587H110.5V40.7253Z" fill="#2196F3"/>
<path d="M154.064 55.9738C153.435 55.1256 152.512 54.5797 151.464 54.4326C150.412 54.2833 149.373 54.5597 148.533 55.2026L145.795 57.3014L145.794 57.3026L141.643 60.4025L138.672 59.2195C143.969 56.843 147.671 51.545 147.671 45.3942C147.671 37.0314 140.84 30.2274 132.444 30.2274C124.047 30.2274 117.216 37.0314 117.216 45.3942C117.216 48.4253 118.123 51.244 119.666 53.6158L113.62 53.5633C113.617 53.5633 113.613 53.5633 113.61 53.5633C113.591 53.5633 113.576 53.5726 113.559 53.5738C113.443 53.5785 113.33 53.6019 113.219 53.6415C113.191 53.652 113.162 53.6579 113.135 53.6706C113.121 53.6765 113.107 53.6776 113.093 53.6846L106.021 57.1764C106.02 57.1764 106.018 57.1764 106.018 57.1775L101.877 59.1693C101.831 59.1891 101.784 59.2159 101.739 59.2463C100.088 60.3452 99.5257 62.5036 100.43 64.2676C100.912 65.2056 101.732 65.8964 102.74 66.2125C103.129 66.3337 103.525 66.3933 103.92 66.3933C104.553 66.3933 105.181 66.2382 105.756 65.9314L108.792 64.3167L113.744 61.7593L116.712 61.7418L104.808 73.5884C104.807 73.5896 104.806 73.5896 104.805 73.5907L101.876 76.5074C101.185 77.1958 100.804 78.1092 100.804 79.0835C100.804 80.0565 101.185 80.9723 101.876 81.6619C102.587 82.3689 103.522 82.7236 104.456 82.7236C105.392 82.7236 106.325 82.3689 107.038 81.6619L109.913 78.7988L113.721 75.9556L115.691 77.9179L111.838 81.7552C111.836 81.7564 111.835 81.7564 111.834 81.7575L108.906 84.6741C108.214 85.3625 107.833 86.276 107.833 87.2502C107.833 88.2233 108.214 89.139 108.906 89.8287C109.616 90.5356 110.552 90.8903 111.486 90.8903C112.421 90.8903 113.357 90.5356 114.068 89.8287L116.998 86.912L121.684 82.2453C121.685 82.2441 121.685 82.243 121.687 82.2417L123.895 80.0542L123.887 80.046C123.901 80.0321 123.921 80.0273 123.935 80.0122L135.235 67.6349L142.828 68.7153C142.883 68.7235 142.938 68.7269 142.993 68.7269C143.134 68.7269 143.27 68.6931 143.402 68.6429C143.441 68.629 143.474 68.6103 143.511 68.5917C143.553 68.5706 143.597 68.559 143.637 68.5322L150.666 63.8655C150.692 63.848 150.706 63.82 150.73 63.8014C150.758 63.7792 150.793 63.7699 150.819 63.7453L153.6 61.1401C155.047 59.7841 155.247 57.5628 154.064 55.9738ZM104.66 63.8722C104.281 64.0752 103.851 64.116 103.439 63.9854C103.03 63.8583 102.699 63.5793 102.505 63.2025C102.153 62.5165 102.357 61.6811 102.974 61.2297L105.848 59.8471L106.54 61.869L106.83 62.7183L104.66 63.8722ZM112.31 59.8741L108.923 61.6241L108.365 59.9907L107.963 58.817L112.397 56.6282L112.31 59.8741ZM145.34 45.3919C145.34 47.4009 144.861 49.2957 144.03 50.9908L134.883 46.8362C134.788 45.5821 134.137 44.4842 133.159 43.8005L136.361 33.1685C141.563 34.823 145.34 39.6752 145.34 45.3919ZM119.552 45.3919C119.552 38.3159 125.336 32.5583 132.446 32.5583C132.999 32.5583 133.54 32.605 134.076 32.6726L130.943 43.0714C130.901 43.0701 130.862 43.0585 130.819 43.0585C128.56 43.0585 126.722 44.8902 126.722 47.1419C126.722 49.3936 128.56 51.2254 130.819 51.2254C132.338 51.2254 133.65 50.3866 134.358 49.1591L142.807 52.9976C140.456 56.1616 136.694 58.2255 132.446 58.2255C125.336 58.2255 119.552 52.4679 119.552 45.3919ZM132.581 47.1419C132.581 48.1068 131.79 48.892 130.819 48.892C129.847 48.892 129.056 48.1068 129.056 47.1419C129.056 46.1771 129.847 45.3919 130.819 45.3919C131.79 45.3919 132.581 46.1771 132.581 47.1419ZM105.392 80.0075C104.875 80.5196 104.038 80.5185 103.523 80.0087C103.274 79.7601 103.138 79.4324 103.138 79.0835C103.138 78.7358 103.274 78.408 103.523 78.1619L105.627 76.0652L107.489 77.9192L105.392 80.0075ZM112.422 88.1743C111.905 88.6865 111.068 88.6877 110.552 88.1756C110.303 87.927 110.167 87.5993 110.167 87.2504C110.167 86.9027 110.303 86.5748 110.552 86.3287L112.658 84.231L113.539 85.1073L114.521 86.085L112.422 88.1743ZM120.038 80.5862C120.037 80.5873 120.036 80.5873 120.035 80.5885L116.174 84.4386L115.293 83.5623L114.311 82.5846L118.168 78.7451C118.168 78.7451 118.168 78.7451 118.168 78.744C118.169 78.7428 118.17 78.7428 118.172 78.7417C118.259 78.6542 118.314 78.5492 118.368 78.4454C118.383 78.4151 118.412 78.3894 118.425 78.3579C118.461 78.2681 118.467 78.1713 118.481 78.0767C118.488 78.0229 118.511 77.9729 118.511 77.9179C118.511 77.8397 118.483 77.764 118.467 77.6869C118.453 77.6169 118.453 77.5457 118.426 77.4781C118.382 77.3685 118.306 77.2717 118.227 77.1771C118.204 77.1514 118.196 77.1187 118.172 77.0942C118.172 77.0942 118.172 77.0942 118.17 77.0942C118.169 77.0931 118.169 77.0906 118.168 77.0896L114.653 73.5895C114.616 73.5522 114.568 73.537 114.526 73.5056C114.464 73.4577 114.405 73.4134 114.336 73.3795C114.269 73.3468 114.201 73.327 114.131 73.3083C114.057 73.2872 113.984 73.2709 113.906 73.2651C113.835 73.2604 113.769 73.2674 113.698 73.2756C113.619 73.2849 113.546 73.2954 113.47 73.3199C113.396 73.3433 113.331 73.3794 113.264 73.4179C113.22 73.4424 113.171 73.4506 113.131 73.4809L109.251 76.3767L107.281 74.4143L112.529 69.1946L122.067 78.576L120.038 80.5862ZM134.954 65.2372C134.921 65.2326 134.889 65.2454 134.855 65.2431C134.77 65.2385 134.689 65.2443 134.603 65.2583C134.537 65.2699 134.474 65.2828 134.411 65.3049C134.336 65.3306 134.269 65.3656 134.2 65.4076C134.134 65.4472 134.075 65.4892 134.018 65.5417C133.99 65.5662 133.956 65.5779 133.93 65.6058L123.653 76.8621L114.185 67.5507L120.382 61.3859C120.839 60.9309 120.841 60.1924 120.386 59.735C120.156 59.5052 119.854 59.392 119.552 59.3932V59.3921L114.698 59.4213L114.759 55.9049L121.549 55.9633C124.317 58.7937 128.176 60.5589 132.446 60.5589C133.403 60.5589 134.336 60.4598 135.245 60.2905C135.332 60.3605 135.419 60.4318 135.528 60.4761L140.8 62.5761L141.133 64.2351L141.523 66.1717L134.954 65.2372ZM143.794 65.6269L143.11 62.219L146.274 59.8564L147.102 60.9554L148.345 62.6051L143.794 65.6269ZM152.005 59.4341L150.173 61.1515L148.136 58.4471L149.954 57.053C150.294 56.7917 150.722 56.6855 151.142 56.7403C151.564 56.7998 151.938 57.0203 152.192 57.3621C152.666 58.0003 152.585 58.8905 152.005 59.4341Z" fill="#212121"/>
<path d="M129.755 65.5651L125.067 60.8984C124.613 60.4446 123.876 60.4446 123.421 60.8984L118.734 65.5651C118.515 65.7856 118.391 66.0819 118.391 66.3922C118.391 66.7026 118.513 67.0001 118.734 67.2194L123.421 71.8861C123.648 72.1124 123.947 72.2256 124.244 72.2256C124.542 72.2256 124.84 72.1124 125.067 71.8861L129.755 67.2194C129.974 67.0001 130.099 66.7026 130.099 66.3922C130.099 66.0819 129.975 65.7844 129.755 65.5651ZM124.244 69.4128L121.211 66.3922L124.244 63.3717L127.279 66.3922L124.244 69.4128Z" fill="#212121"/>
<path d="M137.547 36.0923L136.983 38.3581C137.138 38.3966 140.784 39.3463 140.784 43.0587H143.118C143.118 38.6461 139.474 36.5718 137.547 36.0923Z" fill="#212121"/>
<path d="M143.118 45.3919H140.784V47.7253H143.118V45.3919Z" fill="#212121"/>
</svg>
